<?xml version="1.0" encoding="UTF-8" standalone="no"?>
<svg
   version="1.1"
   id="Layer_1"
   x="0px"
   y="0px"
   width="122.881px"
   height="122.88px"
   viewBox="0 0 122.881 122.88"
   enable-background="new 0 0 122.881 122.88"
   xml:space="preserve"
   sodipodi:docname="check.svg"
   inkscape:version="1.2.1 (9c6d41e410, 2022-07-14)"
   xmlns:inkscape="http://www.inkscape.org/namespaces/inkscape"
   xmlns:sodipodi="http://sodipodi.sourceforge.net/DTD/sodipodi-0.dtd"
   xmlns="http://www.w3.org/2000/svg"
   xmlns:svg="http://www.w3.org/2000/svg"><defs
     id="defs936" /><sodipodi:namedview
     id="namedview934"
     pagecolor="#ffffff"
     bordercolor="#000000"
     borderopacity="0.25"
     inkscape:showpageshadow="2"
     inkscape:pageopacity="0.0"
     inkscape:pagecheckerboard="0"
     inkscape:deskcolor="#d1d1d1"
     showgrid="false"
     inkscape:zoom="4.8164745"
     inkscape:cx="59.690962"
     inkscape:cy="71.836776"
     inkscape:window-width="1920"
     inkscape:window-height="1017"
     inkscape:window-x="-8"
     inkscape:window-y="-8"
     inkscape:window-maximized="1"
     inkscape:current-layer="Layer_1" /><path
     style="fill:#ffffff;fill-opacity:0.984314;stroke-width:0.14681"
     d="M 50.943081,84.351707 C 50.700845,84.29263 50.257095,84.117402 49.95697,83.962311 49.481592,83.716655 34.316546,70.116722 32.278987,68.10879 c -1.056371,-1.041011 -1.425292,-1.812683 -1.433544,-2.998541 -0.008,-1.153517 0.359963,-2.057701 1.149548,-2.824537 0.762951,-0.740969 1.468937,-1.042286 2.604188,-1.111481 1.674826,-0.10208 1.742853,-0.05206 9.443831,6.943463 3.795039,3.447393 7.038266,6.395876 7.207171,6.552182 l 0.307101,0.284194 16.373554,-17.143845 c 9.005455,-9.429115 16.799381,-17.550586 17.319835,-18.047712 0.719581,-0.687327 1.134981,-0.959904 1.733949,-1.137777 0.972863,-0.28891 1.223984,-0.290677 2.151803,-0.01514 2.122321,0.630262 3.372486,2.785132 2.785703,4.801633 -0.12461,0.428227 -0.378065,0.983455 -0.563235,1.233839 -0.616112,0.8331 -36.836944,38.680813 -37.427593,39.108677 -0.319397,0.23137 -0.910949,0.491493 -1.314562,0.578053 -0.813167,0.174393 -1.029665,0.176969 -1.673655,0.01991 z"
     id="path983" /><path
     style="fill:#ffffff;fill-opacity:0.984314;stroke-width:0.14681"
     d="M 50.943081,84.351707 C 50.700845,84.29263 50.257829,84.117715 49.958604,83.963006 49.48896,83.720187 34.682269,70.448954 32.36392,68.192896 c -1.128564,-1.098242 -1.510057,-1.872707 -1.518477,-3.082647 -0.008,-1.153517 0.359963,-2.057701 1.149548,-2.824537 0.762951,-0.740969 1.468937,-1.042286 2.604188,-1.111481 1.65578,-0.10092 1.808816,0.0092 8.636376,6.212371 3.350939,3.04451 6.595845,5.990065 7.210905,6.545681 L 51.564748,74.94249 67.86188,57.87784 c 8.963422,-9.385558 16.7547,-17.504135 17.313949,-18.041282 0.792142,-0.760837 1.191334,-1.028457 1.806637,-1.211183 0.975118,-0.289579 1.225804,-0.291416 2.153957,-0.01578 2.122321,0.630262 3.372486,2.785132 2.785703,4.801633 -0.12461,0.428227 -0.38038,0.986891 -0.568378,1.241474 -0.61592,0.834067 -36.829058,38.671192 -37.423618,39.10189 -0.318754,0.230902 -0.909781,0.490645 -1.313394,0.577205 -0.813167,0.174393 -1.029665,0.176969 -1.673655,0.01991 z"
     id="path985" /><path
     style="fill:#ffffff;fill-opacity:0.984314;stroke-width:0.14681"
     d="M 51.016486,84.298391 C 50.002578,83.912787 49.645233,83.621465 44.677526,79.130607 31.193443,66.940862 31.984598,67.687193 31.449398,66.651953 30.772771,65.34315 31.1474,63.394043 32.288611,62.285712 c 0.749246,-0.727659 1.462132,-1.038726 2.548449,-1.112017 1.271455,-0.08578 2.030301,0.236604 3.401912,1.445251 1.360083,1.198487 12.343645,11.138134 13.07999,11.836822 l 0.522691,0.495961 5.782475,-6.058518 C 73.99245,51.743502 84.97017,40.292581 85.695682,39.611616 c 1.309955,-1.229524 2.727422,-1.492693 4.292631,-0.796976 1.28248,0.570047 2.143988,1.71341 2.355923,3.126697 0.122314,0.815645 -0.190743,2.025973 -0.703704,2.720627 -0.315474,0.427216 -3.697504,3.984235 -24.254651,25.509602 -11.930131,12.492029 -12.907384,13.486563 -13.60495,13.845543 -0.816719,0.420298 -2.064963,0.547306 -2.764445,0.281282 z"
     id="path987" /></svg>
